<svg xmlns="http://www.w3.org/2000/svg" width="24" height="22.929" viewBox="0 0 24 22.929">
  <g id="グループ_32" data-name="グループ 32" transform="translate(0.5 0.707)">
    <path id="パス_3" data-name="パス 3" d="M9,4.5A4.5,4.5,0,1,1,4.5,0,4.5,4.5,0,0,1,9,4.5Z" transform="translate(0 21.722) rotate(-90)" fill="none" stroke="#fff" stroke-linecap="round" stroke-linejoin="round" stroke-width="1"/>
    <path id="パス_4" data-name="パス 4" d="M9,4.5A4.5,4.5,0,1,1,4.5,0,4.5,4.5,0,0,1,9,4.5Z" transform="translate(14 21.722) rotate(-90)" fill="none" stroke="#fff" stroke-linecap="round" stroke-linejoin="round" stroke-width="1"/>
    <path id="パス_5" data-name="パス 5" d="M16.475,0,0,16.31" transform="translate(1.5 16.475) rotate(-90)" fill="none" stroke="#fff" stroke-linecap="round" stroke-linejoin="round" stroke-width="1"/>
    <path id="パス_6" data-name="パス 6" d="M0,0,8.3,8.28" transform="translate(13.22 8.295) rotate(-90)" fill="none" stroke="#fff" stroke-linecap="round" stroke-linejoin="round" stroke-width="1"/>
    <path id="パス_7" data-name="パス 7" d="M0,0,6.408,6.6" transform="translate(5.445 16.105) rotate(-90)" fill="none" stroke="#fff" stroke-linecap="round" stroke-linejoin="round" stroke-width="1"/>
  </g>
</svg>
